<svg xmlns="http://www.w3.org/2000/svg" fill="none" viewBox="0 0 64 64">
    <title>WinqLab W icon</title>
    <defs>
        <linearGradient id="winqlab-favicon-plate" x1="14" y1="8" x2="50" y2="58" gradientUnits="userSpaceOnUse">
            <stop offset="0" stop-color="#14283B" />
            <stop offset="0.52" stop-color="#102031" />
            <stop offset="1" stop-color="#0A131D" />
        </linearGradient>
        <linearGradient id="winqlab-favicon-frame" x1="10" y1="9" x2="53" y2="56" gradientUnits="userSpaceOnUse">
            <stop offset="0" stop-color="#314356" stop-opacity="0.62" />
            <stop offset="1" stop-color="#6B7C8F" stop-opacity="0.18" />
        </linearGradient>
        <linearGradient id="winqlab-favicon-ribbon" x1="14" y1="18" x2="47" y2="44" gradientUnits="userSpaceOnUse">
            <stop offset="0" stop-color="#E8EDF1" />
            <stop offset="0.46" stop-color="#CCD5DC" />
            <stop offset="1" stop-color="#95AAB7" />
        </linearGradient>
        <linearGradient id="winqlab-favicon-highlight" x1="16" y1="16" x2="33" y2="34" gradientUnits="userSpaceOnUse">
            <stop offset="0" stop-color="#FFF8E8" stop-opacity="0.92" />
            <stop offset="0.45" stop-color="#F7FBFF" stop-opacity="0.5" />
            <stop offset="1" stop-color="#F7FBFF" stop-opacity="0" />
        </linearGradient>
        <linearGradient id="winqlab-favicon-warm" x1="14.2" y1="17.2" x2="31.5" y2="33.4" gradientUnits="userSpaceOnUse">
            <stop offset="0" stop-color="#F5D7A2" />
            <stop offset="0.42" stop-color="#E9C27D" stop-opacity="0.92" />
            <stop offset="0.78" stop-color="#DFAF63" stop-opacity="0.62" />
            <stop offset="1" stop-color="#DFAF63" stop-opacity="0" />
        </linearGradient>
        <linearGradient id="winqlab-favicon-cool" x1="31" y1="26" x2="47.5" y2="43.5" gradientUnits="userSpaceOnUse">
            <stop offset="0" stop-color="#9ED7E1" stop-opacity="0" />
            <stop offset="0.32" stop-color="#9ED7E1" stop-opacity="0.44" />
            <stop offset="1" stop-color="#77C3D2" stop-opacity="0.88" />
        </linearGradient>
    </defs>
    <rect x="6" y="6" width="52" height="52" rx="15" fill="url(#winqlab-favicon-plate)" />
    <path
        d="M12 13.5h40c-1.1 0-2.1-.1-3-.4v7.3c0 1.7-1.4 3.1-3.1 3.1H18.1c-1.7 0-3.1-1.4-3.1-3.1v-7.3c-.9.3-1.9.4-3 .4Z"
        fill="#FFFFFF"
        opacity="0.05"
    />
    <rect x="6.75" y="6.75" width="50.5" height="50.5" rx="14.25" stroke="url(#winqlab-favicon-frame)" stroke-width="1.5" />
    <path
        d="M16 18.5 21.8 44 31.3 24 40.8 44 46.6 18.5"
        stroke="#0B1320"
        stroke-opacity="0.34"
        stroke-linecap="round"
        stroke-linejoin="round"
        stroke-width="10.2"
        transform="translate(0.6 1.2)"
    />
    <path
        d="M16 18.5 21.8 44 31.3 24 40.8 44 46.6 18.5"
        stroke="url(#winqlab-favicon-ribbon)"
        stroke-linecap="round"
        stroke-linejoin="round"
        stroke-width="8.8"
    />
    <path
        d="M16 18.5 21.8 44 31.3 24"
        fill="none"
        stroke="url(#winqlab-favicon-warm)"
        stroke-linecap="round"
        stroke-linejoin="round"
        stroke-width="7.5"
    />
    <path
        d="M31.3 24 40.8 44 46.6 18.5"
        fill="none"
        stroke="url(#winqlab-favicon-cool)"
        stroke-linecap="round"
        stroke-linejoin="round"
        stroke-width="7.2"
    />
    <path
        d="M16 18.5 21.8 44 31.3 24 40.8 44 46.6 18.5"
        transform="translate(-0.45 -0.85)"
        fill="none"
        stroke="url(#winqlab-favicon-highlight)"
        stroke-linecap="round"
        stroke-linejoin="round"
        stroke-width="3"
    />
</svg>
